<?xml version="1.0" encoding="utf-8"?>
<!-- Generator: Adobe Illustrator 27.3.1, SVG Export Plug-In . SVG Version: 6.00 Build 0)  -->
<svg version="1.1" id="Layer_1" xmlns="http://www.w3.org/2000/svg" xmlns:xlink="http://www.w3.org/1999/xlink" x="0px" y="0px"
	 viewBox="0 0 121.4 121.4" style="enable-background:new 0 0 121.4 121.4;" xml:space="preserve">
<style type="text/css">
	.st0{fill:none;stroke:#21B685;stroke-width:2.8229;stroke-linecap:round;stroke-linejoin:round;stroke-miterlimit:10;}
</style>
<g>
	<path class="st0" d="M74.3,17.5c-10.6,0,6,0-27.1,0c-2,0-3.6,1.7-3.6,3.6V45c0,2,1.6,3.6,3.6,3.6h27.1c2,0,3.6-1.6,3.6-3.6V21.2
		C77.9,19.2,76.3,17.5,74.3,17.5L74.3,17.5z"/>
	<polyline class="st0" points="77.9,37.4 94.9,37.4 94.9,28.8 77.9,28.8 	"/>
	<polyline class="st0" points="69.1,48.6 69.1,56.7 64.9,62.3 56.5,62.3 52.3,56.7 52.3,48.6 	"/>
	<line class="st0" x1="60.7" y1="62.3" x2="60.7" y2="67.3"/>
	<path class="st0" d="M60.7,73.5v4.1c0,2.1-1.7,3.8-3.8,3.8H32.2c-2.1,0-3.8,1.7-3.8,3.8l0,0c0,2.1,1.7,3.8,3.8,3.8h57
		c2.1,0,3.8,1.7,3.8,3.8l0,0c0,2.1-1.7,3.8-3.8,3.8h-57c-2.1,0-3.8,1.7-3.8,3.8l0,0c0,2.1,1.7,3.8,3.8,3.8h62.7"/>
	<polyline class="st0" points="43.5,28.8 26.5,28.8 26.5,37.4 43.5,37.4 	"/>
</g>
</svg>
