<?xml version="1.0" encoding="utf-8"?>
<!-- Generator: Adobe Illustrator 27.3.1, SVG Export Plug-In . SVG Version: 6.00 Build 0)  -->
<svg version="1.1" id="Layer_1" xmlns="http://www.w3.org/2000/svg" xmlns:xlink="http://www.w3.org/1999/xlink" x="0px" y="0px"
	 viewBox="0 0 121.4 121.4" style="enable-background:new 0 0 121.4 121.4;" xml:space="preserve">
<style type="text/css">
	.st0{fill:none;stroke:#21B685;stroke-width:2.8229;stroke-linecap:round;stroke-linejoin:round;stroke-miterlimit:10;}
</style>
<g id="quote_3_">
	<path class="st0" d="M25,81.3c-4.3-7.5-6.4-16.4-5.2-25.9c2.4-18.9,17.7-33.9,36.7-35.8c26.1-2.6,47.9,19.2,45.3,45.3
		c-1.9,19-16.9,34.3-35.8,36.7c-9.5,1.2-18.4-0.9-25.9-5.2L19.4,102L25,81.3z"/>
	<g>
		<g>
			<path class="st0" d="M60.7,79.3l-9.8-4.8c-3.4-1.8-5.5-5.2-5.3-9l0.7-18.8c0-1,0.7-2,1.7-2.3L60.7,42l12.8,2.4
				c1,0.3,1.7,1.2,1.7,2.3l0.7,18.8c0.1,3.7-1.9,7.2-5.3,9L60.7,79.3z"/>
		</g>
	</g>
</g>
</svg>
