<?xml version="1.0" encoding="utf-8"?>
<!-- Generator: Adobe Illustrator 27.3.1, SVG Export Plug-In . SVG Version: 6.00 Build 0)  -->
<svg version="1.1" id="Layer_1" xmlns="http://www.w3.org/2000/svg" xmlns:xlink="http://www.w3.org/1999/xlink" x="0px" y="0px"
	 viewBox="0 0 121.4 121.4" style="enable-background:new 0 0 121.4 121.4;" xml:space="preserve">
<style type="text/css">
	.st0{fill:none;stroke:#21B685;stroke-width:2.8229;stroke-linecap:round;stroke-linejoin:round;stroke-miterlimit:10;}
	.st1{fill:#21B685;}
</style>
<g>
	<path class="st0" d="M106.9,34.3c2.2,0,4-1.8,4-4l0,0c0-2.2-1.8-4-4-4H14.5c-2.2,0-4,1.8-4,4l0,0c0,2.2,1.8,4,4,4H106.9z"/>
	<polyline class="st0" points="21.5,34.3 21.5,95.1 99.9,95.1 99.9,34.3 	"/>
	<path class="st0" d="M60.7,95.1"/>
	<g>
		<rect x="82.8" y="53.9" class="st1" width="6.2" height="28.1"/>
		<rect x="66" y="66.8" class="st1" width="6.2" height="15.2"/>
		<rect x="49.2" y="53.9" class="st1" width="6.2" height="28.1"/>
		<rect x="32.4" y="64.7" class="st1" width="6.2" height="17.4"/>
		<polyline class="st0" points="85.9,43.7 69.1,56.6 52.3,43.7 35.5,54.4 		"/>
	</g>
</g>
</svg>
